<?xml version="1.0" encoding="UTF-8"?>
<svg id="Layer_1" data-name="Layer 1" xmlns="http://www.w3.org/2000/svg" viewBox="0 0 1237.69 1280">
  <defs>
    <style>
      .cls-1 {
        fill: #3c4d23;
        stroke-width: 0px;
      }
    </style>
  </defs>
  <path class="cls-1" d="m706.5,11.95c-32.25,7.95-61.95,20.58-89.08,37.89-27.14,17.31-49.15,40-65.96,68.04-16.86,28.07-25.31,62.7-25.31,103.86,0,49.59,11.16,96.18,32.3,140.34,17.87,37.34,53.51,100.67,72.95,136.13,0,0-225.38-2.44-273.3-3.66C150.28,489.27,0,642.89,0,846.36c0,45.84,5.39,90.52,16.13,134.03,10.78,43.49,27.41,82.57,49.84,117.18,22.43,34.63,51.94,62.22,88.4,82.8,36.5,20.58,79.99,30.86,130.52,30.86,41.16,0,77.71-10.28,109.5-30.86,31.8-20.58,60.12-47.24,84.88-79.99,24.76-32.75,47.24-67.36,67.34-103.86,20.15-36.48,39.1-71.08,56.83-103.84,17.82-32.75,36.04-59.41,54.73-80.01,18.73-20.56,39.1-38.35,61.08-53.31,21.97-14.96,46.55-22.45,73.69-22.45,29.01,0,56.83,7.95,83.51,23.85,26.68,15.92,48.15,37.44,64.5,64.55,16.45,27.16,24.58,57.54,24.58,91.23,0,41.18-10.74,76.98-32.25,107.35-21.52,30.43-48.88,53.56-82.14,69.46-33.17,15.92-67.06,23.87-101.69,23.87l-9.87,26.66,152.99,136.13c45.82-32.73,80.9-73.89,105.25-123.5,24.3-49.57,36.5-102.9,36.5-159.98,0-49.57-7.49-99.4-22.48-149.45-14.98-50.04-36.45-96.37-64.55-138.94-14.3-21.66-30.08-41.1-47.27-58.4,45.05-3.41,211.33-13.15,239.43-29.42,35.59-20.58,60.8-47.49,75.79-80.7,14.98-33.19,22.48-68.52,22.48-105.96,0-57.06-11.51-110.85-34.4-161.37-22.89-50.52-51.67-96.34-86.29-137.53-40.2-46.78-88.17-80.93-143.85-102.44C917.46,10.78,860.63,0,802.61,0c-31.8,0-63.86,4-96.12,11.95Zm-275.66,823.17c-17.77,34.63-37.19,68.78-58.25,102.47-21.06,33.67-45.82,61.74-74.37,84.19-28.55,22.45-62.91,33.69-103.15,33.69s-71.58-13.11-99.63-39.31c-28.05-26.18-42.12-61.74-42.12-106.65,0-77.71,50.45-147.11,106.55-196.42,60.22-52.93,139.56-61.91,217.08-61.91h168.02c-11.01,12.66-21.77,26.22-32.03,41.5-26.63,39.79-54.04,87.25-82.09,142.44ZM979.45,176.13c32.75,6.1,63.18,16.63,91.23,31.59,28.05,14.96,50.75,35.31,68.07,61.03,17.31,25.74,25.95,57.79,25.95,96.14,0,29.01-8.63,52.63-25.95,70.88-17.31,18.23-39.74,32.05-67.34,41.39-27.59,9.36-57.33,15.92-89.17,19.64-31.8,3.75-62.17,5.62-91.18,5.62l-188.03-4.2c-16.9-23.39-33.26-49.13-49.15-77.2-15.9-28.05-23.85-57.06-23.85-87,0-37.41,8.22-67.11,24.58-89.1,16.35-21.97,37.64-38.6,63.82-49.82,26.22-11.24,54.04-18.71,83.51-22.45,29.47-3.75,56.83-5.62,82.09-5.62,30.88,0,62.68,3.04,95.43,9.11Z"/>
</svg>